Coordinates
version=1
nRows=9
nColumns=36
inDegrees=yes

Units are S.I. units (second, meters, Newtons, ...)
If the header above contains a line with 'inDegrees', this indicates whether rotational values are in degrees (yes) or radians (no).

endheader
time	pelvis_tilt	pelvis_list	pelvis_rotation	pelvis_tx	pelvis_ty	pelvis_tz	hip_flexion_r	hip_adduction_r	hip_rotation_r	knee_angle_r	knee_angle_r_beta	ankle_angle_r	subtalar_angle_r	mtp_angle_r	hip_flexion_l	hip_adduction_l	hip_rotation_l	knee_angle_l	knee_angle_l_beta	ankle_angle_l	subtalar_angle_l	mtp_angle_l	lumbar_extension	lumbar_bending	lumbar_rotation	arm_flex_r	arm_add_r	arm_rot_r	elbow_flex_r	pro_sup_r	arm_flex_l	arm_add_l	arm_rot_l	elbow_flex_l	pro_sup_l
     44.90000000	     -5.18018784	     -2.62726079	      1.36321041	      1.04835267	      0.90898939	      0.73610434	     31.60736673	     -0.52396616	      3.29020923	      7.69903589	      0.13437353	      6.56261617	      3.30685217	     -7.49999987	     -8.14115925	     -2.99115276	      3.76657768	     20.16160004	      0.35188630	     19.81061100	     -3.32787179	     -7.49999987	    -12.77731218	      4.86554530	     -5.82443332	      3.71203877	    -14.98121245	     -8.83705286	     19.10548647	     84.06322698	     19.20926757	    -13.83670045	      9.05088947	     38.23952374	     82.96075061
     44.91666670	     -5.02629486	     -3.34832978	      1.08975000	      1.05543804	      0.90637238	      0.74182508	     30.73237204	      0.86947940	      3.23358043	      9.35421302	      0.16326182	      4.33213066	      2.92884780	     -7.49999987	     -9.18728510	     -4.05866717	      2.52606195	     22.27869634	      0.38883660	     17.48261689	     -2.68153165	     -7.49999987	    -12.32272783	      5.86880443	     -5.83096732	      3.75094436	    -15.07364169	     -8.82974827	     18.11302252	     84.37700954	     18.52471927	    -12.81025159	      7.46154788	     36.75336576	     82.49541806
     44.93333330	     -4.66556092	     -4.22796038	      0.65994264	      1.06122399	      0.90244742	      0.74637585	     29.76377979	      2.44736006	      3.22324465	     11.28668848	      0.19698988	      2.78014344	      2.41743415	     -7.49999987	    -10.13386251	     -5.28703507	      1.37314255	     24.67443976	      0.43065021	     14.66492890	     -2.27643909	     -7.49999987	    -12.14403105	      6.97346903	     -5.46774898	      3.51924760	    -15.25306197	     -8.82146655	     17.68134177	     84.59076099	     17.71978327	    -11.79825568	      5.93148909	     35.44899170	     82.23203308
     44.95000000	     -4.35305696	     -5.08635029	      0.14450686	      1.06339035	      0.89971979	      0.74883364	     28.95204784	      3.93815855	      3.29809310	     13.35813249	      0.23314339	      2.01419647	      1.63754486	     -7.49999987	    -10.48664294	     -6.49407295	      0.40327285	     27.52179071	      0.48034586	     11.45806601	     -2.19742833	     -7.49999987	    -12.01488256	      8.01906941	     -4.94385636	      3.36118779	    -15.55646468	     -8.31596600	     17.23127618	     84.51285672	     16.82376129	    -10.85906297	      4.32942704	     34.23910303	     81.77560193
     44.96666670	     -3.84298119	     -5.84370923	     -0.38428699	      1.06362233	      0.90162327	      0.75147779	     27.88470853	      5.30840625	      3.73059865	     15.35432028	      0.26798344	      1.83595745	      0.70910534	     -7.49999987	    -10.31007089	     -7.60517513	     -0.18626672	     31.11425630	      0.54304622	      7.44317979	     -2.59825872	     -7.49999987	    -12.20463237	      8.94139950	     -4.38011597	      3.46836177	    -15.85833959	     -7.19322726	     16.79678303	     84.17019054	     16.02445562	    -10.05994725	      3.12116288	     32.98174721	     81.22637692
     44.98333330	     -3.18747196	     -6.35804795	     -0.76232432	      1.06432204	      0.90834818	      0.75599414	     26.46942137	      6.33534010	      4.03518615	     17.03612303	      0.29733644	      2.26124218	      0.10238394	     -7.49999987	     -9.32335438	     -8.54327950	     -0.35678372	     35.71382755	      0.62332388	      2.36691698	     -3.41693252	     -7.49999987	    -12.76947139	      9.58706863	     -3.72025051	      3.69488313	    -16.11745703	     -6.38967491	     16.42567779	     83.66986396	     15.41885512	     -9.47873976	      2.47793043	     31.58580082	     80.61965785
     45.00000000	     -2.62022585	     -6.60640699	     -1.27491194	      1.06523631	      0.91700744	      0.76268874	     24.91244554	      7.19649678	      4.73655804	     18.30287300	      0.31944540	      2.61456983	     -0.64399097	     -7.49999987	     -7.63545842	     -9.27909177	     -0.51236327	     40.77162867	      0.71159916	     -2.97973335	     -4.15316005	     -7.49999987	    -13.36233173	      9.80276959	     -2.78813042	      3.89460736	    -16.38520868	     -3.91146445	     16.19316174	     84.51948078	     14.90426286	     -9.07411279	      2.30017016	     30.02222945	     81.64896779
     45.01666670	     -2.03789582	     -6.55237809	     -1.55125536	      1.06514108	      0.92437024	      0.76938100	     23.14754487	      7.61203822	      5.20387275	     19.09409459	      0.33325482	      2.96744369	     -0.95885540	     -7.49999987	     -5.56145810	     -9.68104677	     -0.28180562	     45.75448891	      0.79856648	     -7.69490800	     -5.01542699	     -7.49999987	    -14.07288416	      9.65702657	     -2.00943056	      4.22864612	    -16.25757642	     -2.52757050	     15.87248771	     83.51768155	     14.62364616	     -8.86018366	      2.38063836	     28.28074046	     81.03299219
     45.03333330	     -1.58012589	     -6.19440168	     -1.55601025	      1.06474605	      0.92796840	      0.77462503	     21.48867729	      7.57505693	      5.44428978	     19.67534521	      0.34339956	      3.27685121	     -1.22578089	     -7.49999987	     -3.19992134	     -9.64981312	      0.15903896	     50.43372345	      0.88023453	    -11.13783909	     -5.79680029	     -7.49999987	    -14.71733838	      9.26658833	     -1.46856361	      4.52429830	    -15.96023460	     -2.27766034	     15.93574133	     83.66343185	     14.07494392	     -8.84356142	      2.30824236	     27.23234239	     81.21046002
